<?xml version="1.0" encoding="iso-8859-1"?>
<!-- Generator: Adobe Illustrator 18.0.0, SVG Export Plug-In . SVG Version: 6.00 Build 0)  -->
<!DOCTYPE svg PUBLIC "-//W3C//DTD SVG 1.0//EN" "http://www.w3.org/TR/2001/REC-SVG-20010904/DTD/svg10.dtd">
<svg version="1.0" id="artwork" xmlns="http://www.w3.org/2000/svg" xmlns:xlink="http://www.w3.org/1999/xlink" x="0px" y="0px"
	 width="1400px" height="980px" viewBox="0 0 1400 980" style="enable-background:new 0 0 1400 980;" xml:space="preserve">
<rect style="fill:#58A8B9;" width="1400" height="980"/>
<g>
	<path style="fill:#071633;" d="M1294.29,747.64h-205.3c-4.71,0-8.53,3.82-8.53,8.53V885.4c0,4.71,3.82,8.53,8.53,8.53h205.3
		c4.71,0,8.53-3.82,8.53-8.53V756.18C1302.82,751.47,1299,747.64,1294.29,747.64z M1286.69,875.49c0,1.27-1.03,2.31-2.31,2.31
		H1098.9c-1.27,0-2.31-1.03-2.31-2.31v-30.55c0-0.72,0.34-1.4,0.92-1.84l58.69-44.26c0.73-0.55,1.73-0.62,2.53-0.16l47.97,27.35
		l76.24-61.73c0.69-0.56,1.64-0.67,2.44-0.29c0.8,0.38,1.31,1.19,1.31,2.08V875.49z"/>
</g>
<g>
	<path style="fill:#071633;" d="M595.98,86.07h-76v19.24h76V86.07z M458.69,427.96c0,10.12,8.24,18.36,18.36,18.36h161.86
		c10.12,0,18.36-8.24,18.36-18.36v-11.17H458.69V427.96z M667.27,154.83v251.96h106.28c16.89,0,30.62-13.74,30.62-30.62
		c0-46.56,37.88-84.43,84.43-84.43c16.89,0,30.62-13.74,30.62-30.62V154.83H667.27z M693.19,389.37c0,2.01-1.57,3.64-3.52,3.64
		h-8.16c-1.94,0-3.52-1.63-3.52-3.64v-11.5c0-2.01,1.57-3.64,3.52-3.64h8.16c1.94,0,3.52,1.63,3.52,3.64V389.37z M693.19,183.76
		c0,2.01-1.57,3.64-3.52,3.64h-8.16c-1.94,0-3.52-1.63-3.52-3.64v-11.5c0-2.01,1.57-3.64,3.52-3.64h8.16c1.94,0,3.52,1.63,3.52,3.64
		V183.76z M723.58,389.37c0,2.01-1.57,3.64-3.52,3.64h-8.16c-1.94,0-3.52-1.63-3.52-3.64v-11.5c0-2.01,1.57-3.64,3.52-3.64h8.16
		c1.94,0,3.52,1.63,3.52,3.64V389.37z M723.58,183.76c0,2.01-1.57,3.64-3.52,3.64h-8.16c-1.94,0-3.52-1.63-3.52-3.64v-11.5
		c0-2.01,1.57-3.64,3.52-3.64h8.16c1.94,0,3.52,1.63,3.52,3.64V183.76z M753.98,389.37c0,2.01-1.57,3.64-3.52,3.64h-8.16
		c-1.94,0-3.52-1.63-3.52-3.64v-11.5c0-2.01,1.57-3.64,3.52-3.64h8.16c1.94,0,3.52,1.63,3.52,3.64V389.37z M753.98,183.76
		c0,2.01-1.57,3.64-3.52,3.64h-8.16c-1.94,0-3.52-1.63-3.52-3.64v-11.5c0-2.01,1.57-3.64,3.52-3.64h8.16c1.94,0,3.52,1.63,3.52,3.64
		V183.76z M784.37,389.37c0,2.01-1.57,3.64-3.52,3.64h-8.16c-1.94,0-3.52-1.63-3.52-3.64v-11.5c0-2.01,1.57-3.64,3.52-3.64h8.16
		c1.94,0,3.52,1.63,3.52,3.64V389.37z M784.37,183.76c0,2.01-1.57,3.64-3.52,3.64h-8.16c-1.94,0-3.52-1.63-3.52-3.64v-11.5
		c0-2.01,1.57-3.64,3.52-3.64h8.16c1.94,0,3.52,1.63,3.52,3.64V183.76z M814.77,183.76c0,2.01-1.57,3.64-3.52,3.64h-8.16
		c-1.94,0-3.52-1.63-3.52-3.64v-11.5c0-2.01,1.57-3.64,3.52-3.64h8.16c1.94,0,3.52,1.63,3.52,3.64V183.76z M845.16,183.76
		c0,2.01-1.57,3.64-3.52,3.64h-8.16c-1.94,0-3.52-1.63-3.52-3.64v-11.5c0-2.01,1.57-3.64,3.52-3.64h8.16c1.94,0,3.52,1.63,3.52,3.64
		V183.76z M875.56,183.76c0,2.01-1.57,3.64-3.52,3.64h-8.16c-1.94,0-3.52-1.63-3.52-3.64v-11.5c0-2.01,1.57-3.64,3.52-3.64h8.16
		c1.94,0,3.52,1.63,3.52,3.64V183.76z M905.95,183.76c0,2.01-1.57,3.64-3.52,3.64h-8.16c-1.94,0-3.52-1.63-3.52-3.64v-11.5
		c0-2.01,1.57-3.64,3.52-3.64h8.16c1.94,0,3.52,1.63,3.52,3.64V183.76z M638.91,115.3H477.05c-10.12,0-18.36,8.24-18.36,18.36v11.17
		h198.58v-11.17C657.27,123.54,649.03,115.3,638.91,115.3z M458.69,406.79h198.58V154.83H458.69V406.79z"/>
</g>
<g>
	<path style="fill:#071633;" d="M892.08,600.3h-77.24c-10.46,0-20.07-5.78-24.96-15.03l-7.32-13.82c-4.12-7.78-12.2-12.65-21-12.65
		H638.1c-8.8,0-16.89,4.87-21,12.65l-7.32,13.82c-4.9,9.25-14.5,15.03-24.96,15.03h-77.24c-27,0-48.89,21.89-48.89,48.89v195.86
		c0,27,21.89,48.89,48.89,48.89h384.5c27,0,48.89-21.89,48.89-48.89V649.19C940.97,622.19,919.08,600.3,892.08,600.3z
		 M699.83,855.08c-59.53,0-107.97-48.43-107.97-107.97s48.43-107.97,107.97-107.97S807.8,687.58,807.8,747.12
		S759.37,855.08,699.83,855.08z M699.83,649.15c-54.02,0-97.97,43.95-97.97,97.97s43.95,97.97,97.97,97.97s97.97-43.95,97.97-97.97
		S753.85,649.15,699.83,649.15z M699.83,824.54c-42.69,0-77.43-34.73-77.43-77.43c0-42.69,34.73-77.43,77.43-77.43
		s77.43,34.73,77.43,77.43C777.26,789.81,742.53,824.54,699.83,824.54z"/>
</g>
<g>
	<path style="fill:#071633;" d="M113.49,232.36h205.3c4.71,0,8.53-3.82,8.53-8.53V94.6c0-4.71-3.82-8.53-8.53-8.53h-205.3
		c-4.71,0-8.53,3.82-8.53,8.53v129.22C104.95,228.53,108.77,232.36,113.49,232.36z M117.86,98.98h196.55v120.47H117.86V98.98z
		 M356.95,291.69l-26.2-48.2c-2.11-3.88-6.17-6.29-10.58-6.29H112.12c-4.41,0-8.48,2.41-10.58,6.29l-26.2,48.2
		c-2,3.68,0.66,8.15,4.85,8.15H352.1C356.28,299.84,358.95,295.37,356.95,291.69z"/>
</g>
<g>
	<path style="fill:#071633;" d="M1246.42,370.44h-109.57c-9.2,0-16.66,7.46-16.66,16.66v205.8c0,9.2,7.46,16.66,16.66,16.66h109.57
		c9.2,0,16.66-7.46,16.66-16.66V387.1C1263.08,377.9,1255.62,370.44,1246.42,370.44z M1191.64,597.81
		c-7.36,0-13.33-5.97-13.33-13.33s5.97-13.33,13.33-13.33c7.36,0,13.33,5.97,13.33,13.33S1199,597.81,1191.64,597.81z
		 M1245.56,559.4h-107.85V387.96h107.85V559.4z"/>
</g>
<g>
	<path style="fill:#071633;" d="M1206.83,293.8c39.26-16.14,66.91-54.76,66.91-99.83c0-59.59-48.31-107.9-107.9-107.9
		s-107.9,48.31-107.9,107.9s48.31,107.9,107.9,107.9h159.51v-8.07H1206.83z M1106.04,219.49c-14.09,0-25.52-11.43-25.52-25.52
		c0-14.09,11.43-25.52,25.52-25.52c14.09,0,25.52,11.43,25.52,25.52C1131.56,208.06,1120.14,219.49,1106.04,219.49z M1165.83,279.28
		c-14.09,0-25.52-11.43-25.52-25.52c0-14.09,11.43-25.52,25.52-25.52c14.09,0,25.52,11.43,25.52,25.52
		C1191.35,267.85,1179.93,279.28,1165.83,279.28z M1156.46,193.97c0-5.18,4.2-9.38,9.38-9.38s9.38,4.2,9.38,9.38
		c0,5.18-4.2,9.38-9.38,9.38S1156.46,199.15,1156.46,193.97z M1165.83,159.7c-14.09,0-25.52-11.43-25.52-25.52
		s11.43-25.52,25.52-25.52c14.09,0,25.52,11.43,25.52,25.52S1179.93,159.7,1165.83,159.7z M1225.62,168.45
		c14.09,0,25.52,11.43,25.52,25.52c0,14.09-11.43,25.52-25.52,25.52c-14.09,0-25.52-11.43-25.52-25.52
		C1200.1,179.88,1211.53,168.45,1225.62,168.45z"/>
</g>
<g>
	<path style="fill:#071633;" d="M129.08,893.93H303.2v-15.21H129.08V893.93z M303.2,709.82h-73l42.61-74.08
		c0.7-1.21,0.28-2.76-0.93-3.46c-1.21-0.7-2.76-0.28-3.46,0.93l-44.07,76.6h-16.41l-44.07-76.6c-0.7-1.21-2.25-1.63-3.46-0.93
		c-1.21,0.7-1.63,2.25-0.93,3.46l42.61,74.08h-73c-16.05,0-29.06,13.01-29.06,29.06v103.4c0,16.05,13.01,29.06,29.06,29.06H303.2
		c16.05,0,29.06-13.01,29.06-29.06v-103.4C332.26,722.83,319.25,709.82,303.2,709.82z M312.91,842.28c0,5.36-4.36,9.72-9.72,9.72
		H129.08c-5.36,0-9.72-4.36-9.72-9.72v-103.4c0-5.36,4.36-9.72,9.72-9.72H303.2c5.36,0,9.72,4.36,9.72,9.72V842.28z"/>
</g>
<path style="fill:#071633;" d="M221.83,575.22h32.58l22.13-53.43h-39.88L221.83,575.22z M105.78,412.7v94.63h11.75l44.29-25.57
	v-43.49l-44.29-25.57H105.78z M300.39,404.78H194.46c-14.41,0-26.1,11.69-26.1,26.1v58.27c0,14.41,11.69,26.1,26.1,26.1h105.93
	c14.41,0,26.1-11.69,26.1-26.1v-58.27C326.49,416.47,314.81,404.78,300.39,404.78z"/>
</svg>
